<svg width="15" height="9" viewBox="0 0 15 9" fill="none" xmlns="http://www.w3.org/2000/svg">
<path d="M7.65704 8.09071L13.7997 1.77433C13.9419 1.62824 14.0186 1.43479 14.0158 1.22971C14.0129 1.02462 13.9308 0.833393 13.7846 0.691321L13.3196 0.238947C13.0165 -0.055409 12.5308 -0.0486399 12.2365 0.25404L7.07832 5.55806L1.76841 0.394115C1.62221 0.252043 1.42887 0.175169 1.2239 0.178025C1.01871 0.180885 0.82759 0.263116 0.685289 0.40921L0.233145 0.874364C0.0909583 1.02057 0.014198 1.2139 0.017056 1.41898C0.019914 1.62407 0.102033 1.8153 0.248237 1.95737L6.57028 8.10586C6.71694 8.24826 6.91118 8.3249 7.11649 8.32158C7.3226 8.31917 7.51452 8.23715 7.65704 8.09071Z" fill="#28553F"/>
</svg>
