<svg width="20" height="20" viewBox="0 0 20 20" fill="none" xmlns="http://www.w3.org/2000/svg">
<path d="M17.5826 12.6547C16.61 12.5347 15.6441 12.3645 14.689 12.1449C14.4559 12.067 14.2065 12.0505 13.9651 12.0972C13.7237 12.1439 13.4985 12.2521 13.3111 12.4113C13.0677 12.6593 12.365 13.3529 11.6347 14.0694C9.01816 12.7831 6.90208 10.6654 5.61784 8.04793C6.32976 7.31764 6.99575 6.61951 7.26673 6.37608C7.42597 6.18875 7.53415 5.96349 7.58082 5.7221C7.62749 5.48071 7.61106 5.23136 7.53313 4.99817C7.31322 4.04157 7.14305 3.07421 7.0233 2.09999C7.01047 1.97593 6.97252 1.85578 6.91174 1.74687C6.85097 1.63795 6.76865 1.54256 6.66981 1.46649C6.57097 1.39043 6.45767 1.33529 6.33683 1.30443C6.21598 1.27358 6.09012 1.26765 5.96691 1.28702H2.05367C1.89214 1.30161 1.74093 1.37271 1.62667 1.48781C1.51241 1.60291 1.44242 1.75464 1.42902 1.91627C1.1764 5.44829 3.1468 9.22833 3.5464 9.95403V9.98159L3.60151 10.0872C5.03193 12.5681 7.09154 14.6277 9.57242 16.0581L9.77452 16.173C10.6931 16.6598 14.3446 18.497 17.7572 18.2444C17.9204 18.2331 18.0743 18.164 18.1913 18.0496C18.3083 17.9351 18.3807 17.7827 18.3956 17.6198V13.7111C18.415 13.5879 18.409 13.462 18.3782 13.3412C18.3473 13.2204 18.2922 13.1071 18.2161 13.0082C18.1401 12.9094 18.0447 12.8271 17.9358 12.7663C17.8268 12.7055 17.7067 12.6675 17.5826 12.6547Z" fill="white"/>
</svg>
